<?xml version="1.0" encoding="UTF-8" standalone="no"?>
<!-- Generator: Adobe Illustrator 16.0.0, SVG Export Plug-In . SVG Version: 6.00 Build 0)  -->

<svg
   xmlns:dc="http://purl.org/dc/elements/1.1/"
   xmlns:cc="http://creativecommons.org/ns#"
   xmlns:rdf="http://www.w3.org/1999/02/22-rdf-syntax-ns#"
   xmlns:svg="http://www.w3.org/2000/svg"
   xmlns="http://www.w3.org/2000/svg"
   xmlns:sodipodi="http://sodipodi.sourceforge.net/DTD/sodipodi-0.dtd"
   xmlns:inkscape="http://www.inkscape.org/namespaces/inkscape"
   version="1.1"
   id="Layer_1"
   x="0px"
   y="0px"
   width="250"
   height="250"
   viewBox="0 0 64 64"
   enable-background="new 0 0 64 64"
   xml:space="preserve"
   sodipodi:docname="development_white.svg"
   inkscape:version="0.92.0 r15299"><metadata
     id="metadata5074"><rdf:RDF><cc:Work
         rdf:about=""><dc:format>image/svg+xml</dc:format><dc:type
           rdf:resource="http://purl.org/dc/dcmitype/StillImage" /><dc:title /></cc:Work></rdf:RDF></metadata><defs
     id="defs5072" /><sodipodi:namedview
     pagecolor="#ffffff"
     bordercolor="#666666"
     borderopacity="1"
     objecttolerance="10"
     gridtolerance="10"
     guidetolerance="10"
     inkscape:pageopacity="0"
     inkscape:pageshadow="2"
     inkscape:window-width="1600"
     inkscape:window-height="837"
     id="namedview5070"
     showgrid="false"
     inkscape:zoom="2.6074563"
     inkscape:cx="105.18573"
     inkscape:cy="106.46884"
     inkscape:window-x="-8"
     inkscape:window-y="-8"
     inkscape:window-maximized="1"
     inkscape:current-layer="Layer_1" /><g
     id="MACBOOK_1_"
     enable-background="new    "
     transform="matrix(0.729172,0,0,0.91669153,8.520448,14.627337)"
     style="stroke-width:1.22313225;fill:#ffffff;fill-opacity:1"><g
       id="MACBOOK"
       style="stroke-width:1.22313225;fill:#ffffff;fill-opacity:1"><g
         id="g5065"
         style="stroke-width:1.22313225;fill:#ffffff;fill-opacity:1"><path
           d="M 58,44 V 15 c 0,-1.657 -1.343,-3 -3,-3 H 9 C 7.343,12 6,13.343 6,15 V 44 H 0 v 5 c 0,1.657 1.343,3 3,3 h 58 c 1.657,0 3,-1.343 3,-3 V 44 Z M 39,49 H 25 V 47 H 39 Z M 54,42 H 10 V 16 h 44 z"
           id="path5063"
           inkscape:connector-curvature="0"
           style="stroke-width:1.22313225;fill:#ffffff;fill-opacity:1" /></g></g></g><g
     transform="matrix(0.33922578,0,0,0.327811,20.830863,30.971593)"
     id="CODE_1_"
     enable-background="new    "
     style="stroke-width:2.99877453;fill:#ffffff;fill-opacity:1;stroke:#ffffff;stroke-opacity:1"><g
       id="CODE"
       style="stroke-width:2.99877453;fill:#ffffff;fill-opacity:1;stroke:#ffffff;stroke-opacity:1"><g
         id="g4487"
         style="stroke-width:2.99877453;fill:#ffffff;fill-opacity:1;stroke:#ffffff;stroke-opacity:1"><path
           inkscape:connector-curvature="0"
           d="m 15.031,17 c -0.844,0 -1.604,0.352 -2.149,0.913 L 12.879,17.91 1.053,29.735 C 0.413,30.285 0,31.091 0,32 c 0,0.844 0.351,1.604 0.912,2.148 l -0.002,0.004 12,12 0.003,-0.004 C 13.453,46.674 14.187,47 15,47 c 1.657,0 3,-1.343 3,-3 0,-0.812 -0.326,-1.547 -0.851,-2.087 l 0.003,-0.003 -9.894,-9.895 9.863,-9.863 -0.003,-0.003 c 0.561,-0.545 0.913,-1.305 0.913,-2.149 0,-1.657 -1.343,-3 -3,-3 z m 49,15 c 0,-0.91 -0.413,-1.715 -1.053,-2.265 L 51.152,17.91 51.15,17.913 C 50.604,17.352 49.844,17 49,17 c -1.657,0 -3,1.343 -3,3 0,0.844 0.352,1.604 0.913,2.149 l -0.003,0.003 9.863,9.863 -9.895,9.895 0.003,0.003 c -0.524,0.54 -0.851,1.274 -0.851,2.087 0,1.657 1.343,3 3,3 0.812,0 1.547,-0.326 2.088,-0.852 l 0.003,0.004 12,-12 -0.003,-0.004 C 63.68,33.604 64.031,32.844 64.031,32 Z M 40,8 C 38.7,8 37.594,8.827 37.177,9.982 L 21.2,51.924 C 21.071,52.258 21,52.621 21,53 c 0,1.657 1.343,3 3,3 1.3,0 2.406,-0.827 2.823,-1.982 L 42.8,12.076 C 42.93,11.742 43,11.38 43,11 43,9.343 41.657,8 40,8 Z"
           id="path4485"
           style="stroke-width:2.99877453;fill:#ffffff;fill-opacity:1;stroke:#ffffff;stroke-opacity:1" /></g></g></g></svg>