<?xml version="1.0" encoding="UTF-8" standalone="no"?>
<!-- Generator: Adobe Illustrator 16.0.0, SVG Export Plug-In . SVG Version: 6.00 Build 0)  -->

<svg
   xmlns:dc="http://purl.org/dc/elements/1.1/"
   xmlns:cc="http://creativecommons.org/ns#"
   xmlns:rdf="http://www.w3.org/1999/02/22-rdf-syntax-ns#"
   xmlns:svg="http://www.w3.org/2000/svg"
   xmlns="http://www.w3.org/2000/svg"
   xmlns:sodipodi="http://sodipodi.sourceforge.net/DTD/sodipodi-0.dtd"
   xmlns:inkscape="http://www.inkscape.org/namespaces/inkscape"
   version="1.1"
   id="Capa_1"
   x="0px"
   y="0px"
   width="250"
   height="250"
   viewBox="0 0 210.13 210.13"
   style="enable-background:new 0 0 210.13 210.13;"
   xml:space="preserve"
   sodipodi:docname="langues.svg"
   inkscape:version="0.92.4 (5da689c313, 2019-01-14)"><metadata
   id="metadata4704"><rdf:RDF><cc:Work
       rdf:about=""><dc:format>image/svg+xml</dc:format><dc:type
         rdf:resource="http://purl.org/dc/dcmitype/StillImage" /></cc:Work></rdf:RDF></metadata><defs
   id="defs4702" /><sodipodi:namedview
   pagecolor="#ffffff"
   bordercolor="#666666"
   borderopacity="1"
   objecttolerance="10"
   gridtolerance="10"
   guidetolerance="10"
   inkscape:pageopacity="0"
   inkscape:pageshadow="2"
   inkscape:window-width="640"
   inkscape:window-height="480"
   id="namedview4700"
   showgrid="false"
   inkscape:zoom="0.944"
   inkscape:cx="125"
   inkscape:cy="125"
   inkscape:window-x="0"
   inkscape:window-y="0"
   inkscape:window-maximized="0"
   inkscape:current-layer="Capa_1" />
<g
   id="g4667">
	<g
   id="g4665">
		
		<path
   d="M203.725,149.891l-10.211-63.346l-0.628-3.876l-3.806,0.972l-36.291,9.265c-3.026-0.043-16.288-7.943-23.407-12.203    c-10.54-6.302-14.157-8.33-16.556-8.33c-2.85,0-11.558,4.085-18.94,8.899c-1.279-1.087-2.262-1.714-2.905-1.623    c-7.663,1.224-30.348,19.574-34.9,18.432c-4.54-1.133-40.554-10.495-40.554-10.495L5.888,149.72c0,0,26.037,6.973,37.18,9.95    l-3.312,4.847c-1.65,2.351-1.732,5.407-0.204,8.354c2.32,4.457,7.657,7.672,12.681,7.672c0.457,0,0.917-0.024,1.367-0.085    c0.381,1.267,0.996,2.484,1.851,3.642c2.801,3.812,7.983,6.369,12.857,6.369c0.667,0,1.321-0.049,1.964-0.134    c0.505,1.485,1.309,2.916,2.426,4.238c3.124,3.714,8.05,6.021,12.857,6.021c0.459,0,0.91-0.024,1.358-0.073    c0.426,1.626,1.19,3.161,2.295,4.536c2.536,3.143,6.546,5.072,10.461,5.072c3.224,0,5.989-1.369,7.608-3.756    c1.699-2.51,4.884-8.038,7.946-13.391c0.664-1.176,1.315-2.326,1.949-3.428c4.311,1.838,6.996,2.989,6.996,2.989    c9.347,3.696,14.182-10.218,9.828-13.987l6.516,2.314c9.565,3.824,18.078-7.897,10.564-15.107c3.593,1.613,6.93,0.834,9.462-1.096    l-0.023,0.03l8.366-1.717l32.284-9.062l3.075-0.864L203.725,149.891z M116.979,182.809c-3.203,5.31-10.035,17.671-12.662,21.556    c-1.023,1.51-2.731,2.186-4.646,2.186c-4.774,0-10.699-4.329-9.32-10.76c-1.461,0.841-3.111,1.206-4.795,1.206    c-6.403,0-13.302-5.456-12.221-11.643c-1.428,1.06-3.194,1.534-5.033,1.534c-6.174,0-13.155-5.346-11.256-11.551    c-1.501,1.15-3.16,1.62-4.819,1.62c-6.135,0-12.233-6.54-9.508-10.425l6.561-9.633c1.066-1.748,2.643-2.467,4.363-2.467    c4.445,0,9.803,4.805,9.252,8.891c2.759-4.561,5.587-8.184,9.073-8.891c0.624-0.115,1.23-0.17,1.839-0.17    c5.925,0,11.201,5.547,11.024,10.01c2.226-3.714,5.301-5.15,8.357-5.15c6.777,0,13.542,7.051,11.329,12.117    c1.215-1.133,2.779-1.639,4.424-1.639C114.652,169.613,121.247,175.757,116.979,182.809z M167.908,159.523    c0.548-1.961,0.683-3.909,0.378-5.729c4.731-0.805,8.951-4.354,10.649-9.164c1.748-4.945,0.384-9.999-3.562-13.165l-0.476-0.335    c-0.268-0.141-27.194-15.059-52.744-30.793l-7.112,0.256c-1.79,0.84-6.686,3.301-7.331,5.626    c-0.779,2.851-4.521,16.453-6.232,23.065c-0.447,1.754-2.25,2.484-4.618,2.484c-6.622,0-17.723-5.662-16.666-10.802    c1.446-6.99,4.457-23.261,5.778-27.992c1.321-4.728,22.877-17.016,26.854-17.016c3.836,0,32.881,20.502,40.176,20.502    c0.244,0,0.469-0.024,0.67-0.076c5.931-1.507,36.291-9.265,36.291-9.265l10.23,63.355L167.908,159.523z"
   id="path4663" />
	</g>
</g>
<g
   id="g4669">
</g>
<g
   id="g4671">
</g>
<g
   id="g4673">
</g>
<g
   id="g4675">
</g>
<g
   id="g4677">
</g>
<g
   id="g4679">
</g>
<g
   id="g4681">
</g>
<g
   id="g4683">
</g>
<g
   id="g4685">
</g>
<g
   id="g4687">
</g>
<g
   id="g4689">
</g>
<g
   id="g4691">
</g>
<g
   id="g4693">
</g>
<g
   id="g4695">
</g>
<g
   id="g4697">
</g>
</svg>