<?xml version="1.0" encoding="UTF-8" standalone="no"?>
<!-- Generator: Adobe Illustrator 16.0.0, SVG Export Plug-In . SVG Version: 6.00 Build 0)  -->

<svg
   xmlns:dc="http://purl.org/dc/elements/1.1/"
   xmlns:cc="http://creativecommons.org/ns#"
   xmlns:rdf="http://www.w3.org/1999/02/22-rdf-syntax-ns#"
   xmlns:svg="http://www.w3.org/2000/svg"
   xmlns="http://www.w3.org/2000/svg"
   xmlns:sodipodi="http://sodipodi.sourceforge.net/DTD/sodipodi-0.dtd"
   xmlns:inkscape="http://www.inkscape.org/namespaces/inkscape"
   version="1.1"
   id="Layer_1"
   x="0px"
   y="0px"
   width="250"
   height="250"
   viewBox="0 0 250 250"
   enable-background="new 0 0 64 64"
   xml:space="preserve"
   sodipodi:docname="responsive_white.svg"
   inkscape:version="0.92.0 r15299"><metadata
     id="metadata7915"><rdf:RDF><cc:Work
         rdf:about=""><dc:format>image/svg+xml</dc:format><dc:type
           rdf:resource="http://purl.org/dc/dcmitype/StillImage" /><dc:title /></cc:Work></rdf:RDF></metadata><defs
     id="defs7913" /><sodipodi:namedview
     pagecolor="#ffffff"
     bordercolor="#666666"
     borderopacity="1"
     objecttolerance="10"
     gridtolerance="10"
     guidetolerance="10"
     inkscape:pageopacity="0"
     inkscape:pageshadow="2"
     inkscape:window-width="1600"
     inkscape:window-height="837"
     id="namedview7911"
     showgrid="false"
     inkscape:zoom="2.6074563"
     inkscape:cx="151.78481"
     inkscape:cy="117.91588"
     inkscape:window-x="-8"
     inkscape:window-y="-8"
     inkscape:window-maximized="1"
     inkscape:current-layer="Layer_1" /><g
     transform="matrix(1.4013165,0,0,1.540611,146.91149,149.36374)"
     id="IPHONE_1_"
     enable-background="new    "
     style="stroke-width:0.68058974;fill:#ffffff;fill-opacity:1"><g
       id="IPHONE"
       style="stroke-width:0.68058974;fill:#ffffff;fill-opacity:1"><g
         id="g7350"
         style="stroke-width:0.68058974;fill:#ffffff;fill-opacity:1"><path
           inkscape:connector-curvature="0"
           d="M 46,3 H 18 c -1.657,0 -3,1.343 -3,3 v 52 c 0,1.657 1.343,3 3,3 h 28 c 1.657,0 3,-1.343 3,-3 V 6 C 49,4.343 47.657,3 46,3 Z M 32,58 c -1.105,0 -2,-0.895 -2,-2 0,-1.105 0.895,-2 2,-2 1.105,0 2,0.895 2,2 0,1.105 -0.895,2 -2,2 z M 46,51 H 18 V 9 h 28 z"
           id="path7348"
           style="stroke-width:0.68058974;fill:#ffffff;fill-opacity:1" /></g></g></g><g
     transform="matrix(1.56843,0,0,1.7135918,110.97454,92.033177)"
     id="IPAD_1_"
     enable-background="new    "
     style="stroke-width:0.60997736;fill:#ffffff;fill-opacity:1"><g
       id="IPAD"
       style="stroke-width:0.60997736;fill:#ffffff;fill-opacity:1"><g
         id="g8486"
         style="stroke-width:0.60997736;fill:#ffffff;fill-opacity:1"><path
           inkscape:connector-curvature="0"
           d="M 54,3 H 10 C 8.343,3 7,4.343 7,6 v 52 c 0,1.657 1.343,3 3,3 h 44 c 1.657,0 3,-1.343 3,-3 V 6 C 57,4.343 55.657,3 54,3 Z M 32,59 c -1.105,0 -2,-0.896 -2,-2 0,-1.104 0.895,-2 2,-2 1.105,0 2,0.896 2,2 0,1.104 -0.895,2 -2,2 z M 51,53 H 13 V 9 h 38 z"
           id="path8484"
           style="stroke-width:0.60997736;fill:#ffffff;fill-opacity:1" /></g></g></g><g
     transform="matrix(2.400853,0,0,2.1723,30.882147,37.181512)"
     id="IMAC_1_"
     enable-background="new    "
     style="stroke-width:0.43788216;fill:#ffffff;fill-opacity:1"><g
       id="IMAC"
       style="stroke-width:0.43788216;fill:#ffffff;fill-opacity:1"><g
         id="g9066"
         style="stroke-width:0.43788216;fill:#ffffff;fill-opacity:1"><path
           inkscape:connector-curvature="0"
           d="M 60,4 H 4 C 2.343,4 1,5.343 1,7 v 40 c 0,1.657 1.343,3 3,3 h 19 v 5 l -4,4 v 1 h 26 v -1 l -4,-4 v -5 h 19 c 1.657,0 3,-1.343 3,-3 V 7 C 63,5.343 61.657,4 60,4 Z M 59,42 H 5 V 8 h 54 z"
           id="path9064"
           style="stroke-width:0.43788216;fill:#ffffff;fill-opacity:1" /></g></g></g></svg>