<?xml version="1.0" encoding="UTF-8" standalone="no"?>
<!-- Generator: Adobe Illustrator 16.0.0, SVG Export Plug-In . SVG Version: 6.00 Build 0)  -->

<svg
   xmlns:dc="http://purl.org/dc/elements/1.1/"
   xmlns:cc="http://creativecommons.org/ns#"
   xmlns:rdf="http://www.w3.org/1999/02/22-rdf-syntax-ns#"
   xmlns:svg="http://www.w3.org/2000/svg"
   xmlns="http://www.w3.org/2000/svg"
   xmlns:sodipodi="http://sodipodi.sourceforge.net/DTD/sodipodi-0.dtd"
   xmlns:inkscape="http://www.inkscape.org/namespaces/inkscape"
   version="1.1"
   id="Layer_1"
   x="0px"
   y="0px"
   width="250"
   height="250"
   viewBox="0 0 250 250"
   enable-background="new 0 0 64 64"
   xml:space="preserve"
   sodipodi:docname="rest_white.svg"
   inkscape:version="0.92.0 r15299"><metadata
     id="metadata10210"><rdf:RDF><cc:Work
         rdf:about=""><dc:format>image/svg+xml</dc:format><dc:type
           rdf:resource="http://purl.org/dc/dcmitype/StillImage" /><dc:title /></cc:Work></rdf:RDF></metadata><defs
     id="defs10208" /><sodipodi:namedview
     pagecolor="#ffffff"
     bordercolor="#666666"
     borderopacity="1"
     objecttolerance="10"
     gridtolerance="10"
     guidetolerance="10"
     inkscape:pageopacity="0"
     inkscape:pageshadow="2"
     inkscape:window-width="1600"
     inkscape:window-height="837"
     id="namedview10206"
     showgrid="false"
     inkscape:zoom="2.6074562"
     inkscape:cx="64.756654"
     inkscape:cy="50.518239"
     inkscape:window-x="-8"
     inkscape:window-y="-8"
     inkscape:window-maximized="1"
     inkscape:current-layer="Layer_1" /><g
     id="ARROWS__x2F__HORIZONTAL_1_"
     enable-background="new    "
     transform="matrix(2.8483281,0,0,2.86466,33.283,80.05538)"
     style="stroke-width:0.35008091;fill:#ffffff;fill-opacity:1"><g
       id="ARROWS__x2F__HORIZONTAL"
       style="stroke-width:0.35008091;fill:#ffffff;fill-opacity:1"><g
         id="g10201"
         style="stroke-width:0.35008091;fill:#ffffff;fill-opacity:1"><path
           d="m 3,22 h 32 v 0 H 53.182 L 48.994,25.77 49,25.779 c -0.609,0.549 -1,1.336 -1,2.222 0,1.657 1.343,3 3,3 0.771,0 1.468,-0.299 2,-0.778 l 0.007,0.008 10,-9 L 63,21.222 c 0.609,-0.549 1,-1.337 1,-2.222 0,-0.885 -0.391,-1.673 -1,-2.222 l 0.007,-0.008 -10,-9 L 53,7.778 C 52.468,7.3 51.771,7 51,7 c -1.657,0 -3,1.343 -3,3 0,0.885 0.391,1.673 1,2.222 L 48.993,12.23 53.182,16 H 39 v 0 H 26 v 0 H 10.818 v 0 H 3 c -1.657,0 -3,1.343 -3,3 0,1.657 1.343,3 3,3 z m 58,20 h -7.818 v 0 H 38 v 0 H 25 v 0 H 10.818 L 15.007,38.23 15,38.223 c 0.61,-0.55 1,-1.337 1,-2.223 0,-1.657 -1.343,-3 -3,-3 -0.772,0 -1.468,0.3 -2,0.777 l -0.007,-0.008 -10,9 L 1,42.777 C 0.391,43.328 0,44.115 0,45 c 0,0.885 0.391,1.672 1,2.223 l -0.007,0.007 10,9 L 11,56.223 c 0.532,0.478 1.229,0.777 2,0.777 1.657,0 3,-1.343 3,-3 0,-0.885 -0.391,-1.673 -1,-2.223 L 15.007,51.769 10.818,48 H 35 v 0 h 26 c 1.657,0 3,-1.343 3,-3 0,-1.657 -1.343,-3 -3,-3 z"
           id="path10199"
           inkscape:connector-curvature="0"
           style="stroke-width:0.35008091;fill:#ffffff;fill-opacity:1" /></g></g></g></svg>