<?xml version="1.0" encoding="UTF-8" standalone="no"?>
<!-- Generator: Adobe Illustrator 19.0.0, SVG Export Plug-In . SVG Version: 6.00 Build 0)  -->

<svg
   xmlns:dc="http://purl.org/dc/elements/1.1/"
   xmlns:cc="http://creativecommons.org/ns#"
   xmlns:rdf="http://www.w3.org/1999/02/22-rdf-syntax-ns#"
   xmlns:svg="http://www.w3.org/2000/svg"
   xmlns="http://www.w3.org/2000/svg"
   xmlns:sodipodi="http://sodipodi.sourceforge.net/DTD/sodipodi-0.dtd"
   xmlns:inkscape="http://www.inkscape.org/namespaces/inkscape"
   version="1.1"
   id="Layer_1"
   x="0px"
   y="0px"
   viewBox="0 0 512 512"
   style="enable-background:new 0 0 512 512;"
   xml:space="preserve"
   sodipodi:docname="teamwork_white.svg"
   inkscape:version="0.92.4 (5da689c313, 2019-01-14)"><metadata
   id="metadata995"><rdf:RDF><cc:Work
       rdf:about=""><dc:format>image/svg+xml</dc:format><dc:type
         rdf:resource="http://purl.org/dc/dcmitype/StillImage" /></cc:Work></rdf:RDF></metadata><defs
   id="defs993" /><sodipodi:namedview
   pagecolor="#ffffff"
   bordercolor="#666666"
   borderopacity="1"
   objecttolerance="10"
   gridtolerance="10"
   guidetolerance="10"
   inkscape:pageopacity="0"
   inkscape:pageshadow="2"
   inkscape:window-width="1920"
   inkscape:window-height="1017"
   id="namedview991"
   showgrid="false"
   inkscape:zoom="1.65625"
   inkscape:cx="256"
   inkscape:cy="256"
   inkscape:window-x="-8"
   inkscape:window-y="-8"
   inkscape:window-maximized="1"
   inkscape:current-layer="Layer_1" />


<g
   id="g922"
   style="fill:#ffffff;fill-opacity:1">
	<g
   id="g920"
   style="fill:#ffffff;fill-opacity:1">
		<path
   d="M256,346.769c-28.723,0-52.087,23.347-52.087,52.079s23.364,52.079,52.087,52.079s52.096-23.356,52.096-52.079    S284.723,346.769,256,346.769z M255.991,425.702c-14.797,0-26.837-12.049-26.837-26.846s12.041-26.846,26.837-26.846    c14.797,0,26.837,12.049,26.837,26.846S270.797,425.702,255.991,425.702z"
   id="path918"
   style="fill:#ffffff;fill-opacity:1" />
	</g>
</g>
<g
   id="g928"
   style="fill:#ffffff;fill-opacity:1">
	<g
   id="g926"
   style="fill:#ffffff;fill-opacity:1">
		<path
   d="M307.772,467.746c-1.775-9.745-10.274-16.819-20.207-16.819h-31.573h-31.565c-9.924,0-18.423,7.074-20.198,16.828    L196.19,512h25.677l6.519-35.849h14.984V512h25.259v-35.849h14.985L290.133,512h25.685L307.772,467.746z"
   id="path924"
   style="fill:#ffffff;fill-opacity:1" />
	</g>
</g>
<g
   id="g934"
   style="fill:#ffffff;fill-opacity:1">
	<g
   id="g932"
   style="fill:#ffffff;fill-opacity:1">
		<path
   d="M59.81,346.769c-28.723,0-52.087,23.347-52.087,52.079s23.364,52.079,52.087,52.079s52.096-23.356,52.096-52.079    S88.533,346.769,59.81,346.769z M59.81,425.702c-14.797,0-26.837-12.049-26.837-26.846s12.041-26.846,26.837-26.846    s26.837,12.049,26.837,26.846S74.607,425.702,59.81,425.702z"
   id="path930"
   style="fill:#ffffff;fill-opacity:1" />
	</g>
</g>
<g
   id="g940"
   style="fill:#ffffff;fill-opacity:1">
	<g
   id="g938"
   style="fill:#ffffff;fill-opacity:1">
		<path
   d="M111.582,467.746c-1.775-9.745-10.274-16.819-20.198-16.819H59.81H28.245c-9.924,0-18.424,7.074-20.198,16.828L0,512    h25.677l6.519-35.849h14.984V512h25.259v-35.849h14.985L93.943,512h25.685L111.582,467.746z"
   id="path936"
   style="fill:#ffffff;fill-opacity:1" />
	</g>
</g>
<g
   id="g946"
   style="fill:#ffffff;fill-opacity:1">
	<g
   id="g944"
   style="fill:#ffffff;fill-opacity:1">
		<path
   d="M452.181,346.769c-28.723,0-52.088,23.347-52.088,52.079s23.364,52.079,52.088,52.079    c28.723,0,52.096-23.356,52.096-52.079S480.905,346.769,452.181,346.769z M452.181,425.702c-14.797,0-26.837-12.049-26.837-26.846    s12.041-26.846,26.837-26.846s26.837,12.049,26.837,26.846S466.978,425.702,452.181,425.702z"
   id="path942"
   style="fill:#ffffff;fill-opacity:1" />
	</g>
</g>
<g
   id="g952"
   style="fill:#ffffff;fill-opacity:1">
	<g
   id="g950"
   style="fill:#ffffff;fill-opacity:1">
		<path
   d="M503.953,467.746c-1.775-9.754-10.274-16.828-20.198-16.828h-31.573h-31.565c-9.924,0-18.423,7.074-20.198,16.828    L392.371,512h25.677l6.519-35.849h14.985V512h25.259v-35.849h14.985L486.315,512H512L503.953,467.746z"
   id="path948"
   style="fill:#ffffff;fill-opacity:1" />
	</g>
</g>
<g
   id="g958"
   style="fill:#ffffff;fill-opacity:1">
	<g
   id="g956"
   style="fill:#ffffff;fill-opacity:1">
		<polygon
   points="268.8,217.6 268.8,192 243.2,192 243.2,217.6 46.071,217.6 46.071,320 71.671,320 71.671,243.2 243.2,243.2     243.2,320 268.8,320 268.8,243.2 440.329,243.2 440.329,320 465.929,320 465.929,217.6   "
   id="polygon954"
   style="fill:#ffffff;fill-opacity:1" />
	</g>
</g>
<g
   id="g960"
   style="fill:#ffffff;fill-opacity:1">
</g>
<g
   id="g962"
   style="fill:#ffffff;fill-opacity:1">
</g>
<g
   id="g964"
   style="fill:#ffffff;fill-opacity:1">
</g>
<g
   id="g966"
   style="fill:#ffffff;fill-opacity:1">
</g>
<g
   id="g968"
   style="fill:#ffffff;fill-opacity:1">
</g>
<g
   id="g970"
   style="fill:#ffffff;fill-opacity:1">
</g>
<g
   id="g972"
   style="fill:#ffffff;fill-opacity:1">
</g>
<g
   id="g974"
   style="fill:#ffffff;fill-opacity:1">
</g>
<g
   id="g976"
   style="fill:#ffffff;fill-opacity:1">
</g>
<g
   id="g978"
   style="fill:#ffffff;fill-opacity:1">
</g>
<g
   id="g980"
   style="fill:#ffffff;fill-opacity:1">
</g>
<g
   id="g982"
   style="fill:#ffffff;fill-opacity:1">
</g>
<g
   id="g984"
   style="fill:#ffffff;fill-opacity:1">
</g>
<g
   id="g986"
   style="fill:#ffffff;fill-opacity:1">
</g>
<g
   id="g988"
   style="fill:#ffffff;fill-opacity:1">
</g>
</svg>