<?xml version="1.0" encoding="UTF-8" standalone="no"?>
<!-- Generator: Adobe Illustrator 16.0.0, SVG Export Plug-In . SVG Version: 6.00 Build 0)  -->

<svg
   xmlns:dc="http://purl.org/dc/elements/1.1/"
   xmlns:cc="http://creativecommons.org/ns#"
   xmlns:rdf="http://www.w3.org/1999/02/22-rdf-syntax-ns#"
   xmlns:svg="http://www.w3.org/2000/svg"
   xmlns="http://www.w3.org/2000/svg"
   xmlns:sodipodi="http://sodipodi.sourceforge.net/DTD/sodipodi-0.dtd"
   xmlns:inkscape="http://www.inkscape.org/namespaces/inkscape"
   version="1.1"
   id="Layer_1"
   x="0px"
   y="0px"
   width="250"
   height="250"
   viewBox="0 0 250 250"
   enable-background="new 0 0 64 64"
   xml:space="preserve"
   sodipodi:docname="bureautique_white.svg"
   inkscape:version="0.92.0 r15299"><metadata
     id="metadata12490"><rdf:RDF><cc:Work
         rdf:about=""><dc:format>image/svg+xml</dc:format><dc:type
           rdf:resource="http://purl.org/dc/dcmitype/StillImage" /><dc:title /></cc:Work></rdf:RDF></metadata><defs
     id="defs12488" /><sodipodi:namedview
     pagecolor="#ffffff"
     bordercolor="#666666"
     borderopacity="1"
     objecttolerance="10"
     gridtolerance="10"
     guidetolerance="10"
     inkscape:pageopacity="0"
     inkscape:pageshadow="2"
     inkscape:window-width="1600"
     inkscape:window-height="837"
     id="namedview12486"
     showgrid="false"
     inkscape:zoom="2.6074563"
     inkscape:cx="75.755635"
     inkscape:cy="108.39502"
     inkscape:window-x="-8"
     inkscape:window-y="-8"
     inkscape:window-maximized="1"
     inkscape:current-layer="Layer_1" /><g
     id="BAR_GRAPH_1_"
     enable-background="new    "
     transform="matrix(1.2883586,0,0,1.053408,53.121096,129.12681)"
     style="stroke-width:0.85838735;fill:#ffffff;fill-opacity:1"><g
       id="BAR_GRAPH"
       style="stroke-width:0.85838735;fill:#ffffff;fill-opacity:1"><g
         id="g12481"
         style="stroke-width:0.85838735;fill:#ffffff;fill-opacity:1"><path
           d="m 48,50 h 6 c 1.657,0 3,-1.343 3,-3 V 26 c 0,-1.657 -1.343,-3 -3,-3 h -6 c -1.657,0 -3,1.343 -3,3 v 21 c 0,1.657 1.343,3 3,3 z m -17,0 h 6 c 1.657,0 3,-1.343 3,-3 V 14 c 0,-1.657 -1.343,-3 -3,-3 h -6 c -1.657,0 -3,1.343 -3,3 v 33 c 0,1.657 1.343,3 3,3 z m 30,3 H 6 V 46 46 8 C 6,6.343 4.657,5 3,5 1.343,5 0,6.343 0,8 v 48 c 0,1.657 1.343,3 3,3 h 58 c 1.657,0 3,-1.343 3,-3 0,-1.656 -1.343,-3 -3,-3 z M 14,50 h 6 c 1.657,0 3,-1.343 3,-3 v -6 c 0,-1.657 -1.343,-3 -3,-3 h -6 c -1.657,0 -3,1.343 -3,3 v 6 c 0,1.657 1.343,3 3,3 z"
           id="path12479"
           inkscape:connector-curvature="0"
           style="stroke-width:0.85838735;fill:#ffffff;fill-opacity:1" /></g></g></g><g
     transform="matrix(2.9402097,0,0,2.5577321,30.34279,89.877071)"
     id="IMAC_1_"
     enable-background="new    "
     style="stroke-width:0.36465597;fill:#ffffff;fill-opacity:1"><g
       id="IMAC"
       style="stroke-width:0.36465597;fill:#ffffff;fill-opacity:1"><g
         id="g13037"
         style="stroke-width:0.36465597;fill:#ffffff;fill-opacity:1"><path
           inkscape:connector-curvature="0"
           d="M 60,4 H 4 C 2.343,4 1,5.343 1,7 v 40 c 0,1.657 1.343,3 3,3 h 19 v 5 l -4,4 v 1 h 26 v -1 l -4,-4 v -5 h 19 c 1.657,0 3,-1.343 3,-3 V 7 C 63,5.343 61.657,4 60,4 Z M 59,42 H 5 V 8 h 54 z"
           id="path13035"
           style="stroke-width:0.36465597;fill:#ffffff;fill-opacity:1" /></g></g></g><g
     id="CALENDAR_1_"
     enable-background="new    "
     transform="matrix(0.89910143,0,0,0.95513304,141.5604,113.47901)"
     style="stroke-width:1.07910502;fill:#ffffff;fill-opacity:1"><g
       id="CALENDAR"
       style="stroke-width:1.07910502;fill:#ffffff;fill-opacity:1"><g
         id="g13617"
         style="stroke-width:1.07910502;fill:#ffffff;fill-opacity:1"><path
           inkscape:connector-curvature="0"
           d="m 48,14 c 1.657,0 3,-1.343 3,-3 V 3 C 51,1.343 49.657,0 48,0 46.343,0 45,1.343 45,3 v 8 c 0,1.657 1.343,3 3,3 z M 61,8 h -6 v 3 c 0,3.866 -3.134,7 -7,7 -3.866,0 -7,-3.134 -7,-7 V 8 H 23 v 3 c 0,3.866 -3.134,7 -7,7 -3.866,0 -7,-3.134 -7,-7 V 8 H 3 C 1.343,8 0,9.343 0,11 v 50 c 0,1.657 1.343,3 3,3 h 58 c 1.657,0 3,-1.343 3,-3 V 11 C 64,9.343 62.657,8 61,8 Z M 58,58 H 6 V 24 H 58 Z M 16,14 c 1.657,0 3,-1.343 3,-3 V 3 C 19,1.343 17.657,0 16,0 14.343,0 13,1.343 13,3 v 8 c 0,1.657 1.343,3 3,3 z m 10.361,25.632 c -0.373,0.347 -0.785,0.663 -1.235,0.949 -0.451,0.286 -0.875,0.567 -1.274,0.845 -0.78,0.538 -1.521,1.066 -2.223,1.586 -0.702,0.521 -1.313,1.088 -1.833,1.703 -0.52,0.615 -0.932,1.312 -1.235,2.094 -0.304,0.779 -0.455,1.698 -0.455,2.756 H 31.47 v -3.172 h -8.606 c 0.451,-0.625 0.97,-1.17 1.56,-1.639 0.589,-0.468 1.196,-0.904 1.82,-1.312 0.624,-0.407 1.244,-0.819 1.859,-1.235 0.615,-0.416 1.166,-0.88 1.651,-1.392 0.485,-0.51 0.875,-1.096 1.17,-1.754 0.294,-0.66 0.442,-1.447 0.442,-2.367 0,-0.883 -0.169,-1.68 -0.507,-2.392 -0.338,-0.71 -0.793,-1.308 -1.365,-1.794 C 28.922,32.023 28.259,31.65 27.505,31.39 26.751,31.13 25.958,31 25.126,31 c -1.092,0 -2.058,0.187 -2.899,0.559 -0.841,0.373 -1.539,0.893 -2.093,1.56 -0.555,0.667 -0.971,1.447 -1.248,2.34 -0.277,0.893 -0.399,1.859 -0.364,2.898 h 3.536 c 0,-0.484 0.048,-0.975 0.143,-1.469 0.095,-0.494 0.255,-0.945 0.481,-1.352 0.225,-0.407 0.524,-0.737 0.897,-0.988 0.373,-0.251 0.828,-0.377 1.365,-0.377 0.797,0 1.452,0.247 1.963,0.741 0.511,0.494 0.767,1.183 0.767,2.067 0,0.555 -0.126,1.049 -0.377,1.481 -0.252,0.435 -0.564,0.825 -0.936,1.172 z m 15.106,6.175 c -0.269,0.321 -0.598,0.582 -0.988,0.78 -0.39,0.199 -0.828,0.299 -1.312,0.299 -0.832,0 -1.518,-0.247 -2.055,-0.741 -0.536,-0.494 -0.85,-1.156 -0.936,-1.988 h -3.692 c 0.017,0.953 0.211,1.789 0.584,2.509 0.373,0.719 0.871,1.321 1.496,1.808 0.623,0.484 1.338,0.844 2.145,1.078 0.807,0.234 1.65,0.352 2.535,0.352 0.919,0.017 1.785,-0.135 2.6,-0.455 0.815,-0.321 1.529,-0.776 2.145,-1.365 0.616,-0.589 1.105,-1.287 1.47,-2.094 0.364,-0.805 0.546,-1.676 0.546,-2.612 0,-0.849 -0.126,-1.651 -0.377,-2.405 -0.252,-0.754 -0.615,-1.408 -1.092,-1.963 -0.477,-0.555 -1.062,-0.997 -1.756,-1.326 -0.692,-0.328 -1.49,-0.494 -2.391,-0.494 -0.729,0 -1.379,0.109 -1.951,0.326 -0.571,0.217 -1.108,0.575 -1.611,1.078 l -0.053,-0.052 0.729,-4.134 h 7.514 V 31.366 H 34.85 l -1.793,10.062 h 3.327 c 0.364,-0.503 0.755,-0.871 1.171,-1.105 0.416,-0.233 0.952,-0.35 1.611,-0.35 0.503,0 0.945,0.086 1.326,0.26 0.381,0.172 0.711,0.416 0.988,0.728 0.276,0.312 0.484,0.676 0.623,1.092 0.14,0.416 0.209,0.858 0.209,1.326 0,0.451 -0.074,0.89 -0.222,1.313 -0.147,0.422 -0.356,0.794 -0.623,1.115 z"
           id="path13615"
           style="stroke-width:1.07910502;fill:#ffffff;fill-opacity:1" /></g></g></g></svg>